<?xml version="1.0" encoding="utf-8"?>
<!-- Generator: Adobe Illustrator 15.0.2, SVG Export Plug-In . SVG Version: 6.00 Build 0)  -->
<!DOCTYPE svg PUBLIC "-//W3C//DTD SVG 1.1//EN" "http://www.w3.org/Graphics/SVG/1.1/DTD/svg11.dtd">
<svg version="1.1" id="Layer_1" xmlns="http://www.w3.org/2000/svg" xmlns:xlink="http://www.w3.org/1999/xlink" x="0px" y="0px"
	 width="200px" height="60px" viewBox="0 0 200 60" enable-background="new 0 0 200 60" xml:space="preserve">
<g>
	<g>
		<g>
			<g>
				<path fill="#3388FF" d="M183.818,53.997c-6.381,0-11.57-5.19-11.57-11.571c0-6.379,5.189-11.57,11.57-11.57
					c6.379,0,11.57,5.191,11.57,11.57C195.389,48.807,190.197,53.997,183.818,53.997z M183.818,33.061
					c-5.166,0-9.368,4.201-9.368,9.365c0,5.165,4.202,9.368,9.368,9.368c5.162,0,9.363-4.203,9.363-9.368
					C193.182,37.262,188.98,33.061,183.818,33.061z"/>
			</g>
			<g>
				<path fill="#4CA6FF" d="M183.818,56.477c-7.748,0-14.053-6.304-14.053-14.051c0-7.746,6.305-14.049,14.053-14.049
					c7.746,0,14.049,6.303,14.049,14.049C197.867,50.173,191.564,56.477,183.818,56.477z M183.818,30.029
					c-6.836,0-12.398,5.562-12.398,12.396c0,6.836,5.563,12.397,12.398,12.397c6.834,0,12.396-5.563,12.396-12.397
					C196.214,35.591,190.652,30.029,183.818,30.029z"/>
			</g>
			<g>
				<path fill="#80D4FF" d="M183.818,58.402c-8.813,0-15.979-7.166-15.979-15.978c0-8.811,7.167-15.978,15.979-15.978
					c8.809,0,15.978,7.167,15.978,15.978C199.795,51.236,192.626,58.402,183.818,58.402z M183.818,27.549
					c-8.207,0-14.879,6.674-14.879,14.877c0,8.202,6.672,14.877,14.879,14.877c8.201,0,14.875-6.675,14.875-14.877
					C198.693,34.223,192.02,27.549,183.818,27.549z"/>
			</g>
			<g>
				<path fill="#0040FF" d="M183.818,50.965c-4.711,0-8.543-3.83-8.543-8.539c0-4.707,3.832-8.541,8.543-8.541
					c4.707,0,8.537,3.834,8.537,8.541C192.355,47.135,188.525,50.965,183.818,50.965z M183.818,36.639
					c-3.191,0-5.786,2.596-5.786,5.787c0,3.19,2.595,5.785,5.786,5.785c3.188,0,5.783-2.595,5.783-5.785
					C189.602,39.234,187.005,36.639,183.818,36.639z"/>
			</g>
		</g>
		<path fill="#0040FF" d="M120.301,29.056v27.021h-4.521v-11.82h-12.973v11.82h-4.522V29.056h4.522v11.584h12.973V29.056H120.301z"
			/>
		<path fill="#0040FF" d="M142.872,50.555h-11.543l-1.983,5.521h-4.722l9.88-27.059h5.237l9.877,27.059h-4.761L142.872,50.555z
			 M141.604,46.938l-4.481-12.557L132.6,46.938H141.604z"/>
		<path fill="#0040FF" d="M158.421,52.499h9.322v3.577H153.9v-27.02h4.521V52.499z"/>
		<g>
			<path fill="#FFFFFF" d="M97.161,9.453c0.78-1.383,1.844-2.465,3.192-3.245c1.348-0.781,2.846-1.171,4.49-1.171
				c1.937,0,3.622,0.466,5.064,1.398c1.442,0.935,2.493,2.258,3.155,3.97h-2.773c-0.492-1.067-1.2-1.891-2.124-2.468
				c-0.925-0.575-2.033-0.864-3.322-0.864c-1.237,0-2.35,0.289-3.331,0.864c-0.986,0.577-1.758,1.396-2.318,2.457
				c-0.558,1.06-0.838,2.302-0.838,3.728c0,1.408,0.28,2.643,0.838,3.703c0.561,1.06,1.332,1.878,2.318,2.456
				c0.981,0.577,2.094,0.865,3.331,0.865c1.289,0,2.397-0.283,3.322-0.852c0.924-0.569,1.632-1.387,2.124-2.456h2.773
				c-0.662,1.697-1.713,3.008-3.155,3.932c-1.442,0.925-3.13,1.386-5.064,1.386c-1.645,0-3.143-0.385-4.49-1.158
				c-1.349-0.772-2.412-1.845-3.192-3.218c-0.781-1.374-1.171-2.927-1.171-4.657C95.99,12.39,96.379,10.834,97.161,9.453z"/>
			<path fill="#FFFFFF" d="M118.557,4.172v18.83h-2.313V4.172H118.557z"/>
			<path fill="#FFFFFF" d="M124.779,22.339c-1.059-0.592-1.893-1.437-2.493-2.53c-0.603-1.094-0.902-2.362-0.902-3.804
				c0-1.425,0.31-2.685,0.931-3.78c0.615-1.095,1.461-1.933,2.528-2.518c1.069-0.586,2.267-0.877,3.589-0.877
				c1.323,0,2.52,0.292,3.59,0.877c1.066,0.585,1.91,1.42,2.53,2.505c0.617,1.086,0.929,2.35,0.929,3.792s-0.316,2.71-0.955,3.804
				c-0.635,1.093-1.496,1.938-2.58,2.53c-1.088,0.594-2.291,0.893-3.614,0.893C127.023,23.231,125.839,22.933,124.779,22.339z
				 M130.67,20.61c0.729-0.39,1.318-0.976,1.77-1.756c0.449-0.779,0.672-1.731,0.672-2.85c0-1.12-0.219-2.069-0.659-2.851
				c-0.442-0.779-1.019-1.361-1.729-1.743c-0.714-0.382-1.484-0.572-2.316-0.572c-0.848,0-1.624,0.19-2.327,0.572
				c-0.704,0.382-1.269,0.964-1.692,1.743c-0.426,0.782-0.635,1.731-0.635,2.851c0,1.136,0.206,2.096,0.622,2.875
				c0.416,0.78,0.972,1.36,1.667,1.742c0.693,0.382,1.459,0.572,2.29,0.572C129.16,21.195,129.941,21,130.67,20.61z"/>
			<path fill="#FFFFFF" d="M150.645,9.059v13.943h-2.316v-2.061c-0.439,0.712-1.055,1.267-1.844,1.666
				c-0.789,0.4-1.659,0.599-2.608,0.599c-1.085,0-2.062-0.226-2.924-0.675c-0.866-0.449-1.55-1.125-2.05-2.022
				c-0.5-0.9-0.752-1.995-0.752-3.284V9.059h2.289v7.862c0,1.374,0.349,2.43,1.043,3.167c0.697,0.737,1.646,1.107,2.852,1.107
				c1.238,0,2.214-0.381,2.926-1.144c0.715-0.764,1.068-1.875,1.068-3.333V9.059H150.645z"/>
			<path fill="#FFFFFF" d="M154.309,12.225c0.575-1.075,1.369-1.911,2.377-2.505c1.012-0.595,2.145-0.89,3.398-0.89
				c1.085,0,2.096,0.249,3.027,0.75c0.932,0.5,1.646,1.159,2.139,1.973v-7.38h2.339v18.83h-2.339v-2.621
				c-0.459,0.832-1.139,1.514-2.038,2.049c-0.899,0.533-1.95,0.801-3.153,0.801c-1.236,0-2.361-0.306-3.373-0.917
				c-1.008-0.609-1.802-1.467-2.377-2.569c-0.576-1.102-0.865-2.358-0.865-3.766C153.443,14.553,153.732,13.304,154.309,12.225z
				 M164.613,13.255c-0.424-0.779-0.996-1.377-1.719-1.792c-0.721-0.417-1.514-0.624-2.377-0.624c-0.867,0-1.654,0.204-2.367,0.61
				c-0.713,0.409-1.281,1.003-1.705,1.782c-0.426,0.781-0.637,1.697-0.637,2.749c0,1.069,0.211,1.998,0.637,2.787
				c0.424,0.79,0.992,1.391,1.705,1.807c0.713,0.415,1.5,0.622,2.367,0.622c0.863,0,1.656-0.208,2.377-0.622
				c0.723-0.417,1.295-1.018,1.719-1.807c0.425-0.789,0.638-1.708,0.638-2.761C165.25,14.952,165.038,14.037,164.613,13.255z"/>
		</g>
	</g>
	<g>
		<path fill="#0040FF" d="M72.086,19.362c-1.546,0-3.044,0.2-4.487,0.54c-22.771,5.729-21.344,38.38-51.621,38.375
			c-0.231,0,0.454-0.025,0.684-0.036v0.036h55.424c10.747,0,19.459-8.711,19.459-19.457C91.545,28.074,82.833,19.362,72.086,19.362z
			"/>
		<rect x="20.513" y="17.856" fill="#0040FF" width="3.013" height="3.012"/>
		<rect x="16.151" y="26.753" fill="#0040FF" width="3.013" height="3.012"/>
		<rect x="17.658" y="28.259" fill="#0040FF" width="3.013" height="3.012"/>
		<rect x="8.727" y="30.786" fill="#0040FF" width="3.708" height="3.709"/>
		<rect x="21.454" y="41.938" fill="#0040FF" width="3.708" height="3.707"/>
		<rect x="23.134" y="38.346" fill="#0040FF" width="5.042" height="4.983"/>
		<rect x="25.755" y="25.43" fill="#0040FF" width="3.709" height="3.71"/>
		<rect x="27.435" y="27.748" fill="#0040FF" width="5.042" height="4.983"/>
		<rect x="30.695" y="17.218" fill="#0040FF" width="3.709" height="3.708"/>
		<rect x="26.898" y="18.851" fill="#0040FF" width="5.042" height="4.983"/>
		<rect x="24.23" y="13.461" fill="#0040FF" width="3.708" height="3.709"/>
		<rect x="25.91" y="9.87" fill="#0040FF" width="5.042" height="4.983"/>
		<rect x="6.965" y="36.328" fill="#0040FF" width="5.452" height="5.609"/>
		<rect x="10.205" y="41.435" fill="#0040FF" width="5.042" height="4.983"/>
		<rect x="14.315" y="32.844" fill="#0040FF" width="5.041" height="4.983"/>
		<path fill="#0040FF" d="M43.56,3.853c-5.518,0-10.644,1.671-14.905,4.532h3.786v3.129h2.665v4.635h1.42v5.698h2.521v1.833h-7.417
			v2.667h2.782v5.676l-1.043,1.043v2.898h-3.129v4.866h2.782v4.52h-17.73L3.772,33.833c-1.697,2.431-2.694,5.387-2.694,8.577
			c0,8.291,6.722,15.011,15.013,15.011c0.231,0,0.453-0.027,0.685-0.033v0.033h2.887c24.542-4.429,24.949-33.583,46.653-39.042
			c0.312-0.074,0.627-0.137,0.944-0.197C62.775,9.666,53.852,3.853,43.56,3.853z M36.033,10.587V7.573h3.014v3.014H36.033z
			 M38.236,16.613v-4.404h5.678v3.129v1.275v2.433h-3.708v-2.433H38.236z M39.047,39.441h-5.041v-4.983h5.041V39.441z M36.033,30.75
			v-4.983h5.042v3.593h1.681v3.708h-3.709V30.75H36.033z M43.566,37.472h-3.013v-3.014h3.013V37.472z M46.464,24.377h-3.708v-3.708
			h3.708V24.377z M48.433,18.12h-3.012v-3.013h3.012V18.12z"/>
		<rect x="3.668" y="33.481" fill="#0040FF" width="3.708" height="3.709"/>
		<rect x="16.835" y="39.33" fill="#0040FF" width="3.013" height="3.013"/>
		<rect x="22.692" y="32.391" fill="#0040FF" width="3.013" height="3.013"/>
		<rect x="21.186" y="33.897" fill="#0040FF" width="3.013" height="3.014"/>
		<rect x="20.166" y="22.614" fill="#0040FF" width="3.708" height="3.709"/>
		<rect x="22.039" y="27.574" fill="#0040FF" width="3.013" height="3.014"/>
		<rect x="27.765" y="39.746" fill="#0040FF" width="3.013" height="3.013"/>
		<rect x="27.081" y="33.897" fill="#0040FF" width="3.013" height="3.014"/>
		<g>
			<rect x="10.539" y="25.932" fill="#0040FF" width="2.282" height="2.282"/>
			<rect x="11.68" y="27.073" fill="#0040FF" width="2.283" height="2.283"/>
		</g>
		<g>
			<rect x="14.646" y="21.824" fill="#0040FF" width="2.282" height="2.282"/>
			<rect x="19.894" y="13.381" fill="#0040FF" width="2.283" height="2.281"/>
			<rect x="12.82" y="20.202" fill="#0040FF" width="2.283" height="2.281"/>
		</g>
	</g>
</g>
</svg>
